<svg xmlns="http://www.w3.org/2000/svg" width="1400" height="1200" viewBox="0 0 1050 910.352" font-family="sans-serif" xmlns:bx="https://boxy-svg.com" preserveAspectRatio="xMidYMid meet">
  <style>
    .box { fill: #e0e0e0; stroke: #888; stroke-width: 1.5; rx: 8; }
    .panel { fill: #d0f5d0; }
    .edit { fill: #ffe0e0; }
    .graph { fill: #e0eaff; }
    .proof { fill: #fffbe0; }
    .util { fill: #f0f0f0; }
    .title { font-size: 32px; font-weight: bold; }
    .subtitle { font-size: 18px; font-weight: bold; }
    .desc { font-size: 14px; fill: #333; }
    .file { font-size: 16px; font-weight: bold; }
    .group { font-size: 18px; font-weight: bold; fill: #444; }
    .arrow { stroke: #888; stroke-width: 1.2; marker-end: url(#arrowhead); }
  </style>
  <rect x="0" y="0" width="100%" height="100%" fill="white" style=""></rect>
  <defs>
    <bx:export>
      <bx:file format="svg"></bx:file>
    </bx:export>
  </defs>
  <text x="550" y="45.44" text-anchor="middle" class="title" style="white-space: pre; font-size: 32px;">ZXLive File Structure (2025)</text>
  <rect x="60" y="100" width="140" height="40" class="box util"></rect>
  <text x="130" y="125" text-anchor="middle" class="file" style="white-space: pre;">__init__.py</text>
  <rect x="220" y="100" width="140" height="40" class="box util"></rect>
  <text x="290" y="125" text-anchor="middle" class="file" style="white-space: pre;">__main__.py</text>
  <text x="219.968" y="91.267" text-anchor="middle" class="desc" style="white-space: pre; font-size: 14px;">Entrypoints for package/module</text>
  <rect x="400" y="100" width="120" height="40" class="box util"></rect>
  <text x="460" y="125" text-anchor="middle" class="file" style="white-space: pre;">app.py</text>
  <rect x="635" y="100" width="180" height="40" class="box util"></rect>
  <text x="725" y="125" text-anchor="middle" class="file" style="white-space: pre; font-size: 16px;">mainwindow.py</text>
  <text x="660.343" y="90" class="desc" style="white-space: pre; font-size: 14px;">Main application logic</text>
  <text x="391.352" y="155.64" class="desc" style="white-space: pre; font-size: 14px;">Starts main event loop                           Main GUI, menus, tabs, etc</text>
  <rect x="60" y="220" width="140" height="40" class="box panel"></rect>
  <text x="130" y="245" text-anchor="middle" class="file" style="white-space: pre;">base_panel.py</text>
  <rect x="220" y="220" width="140" height="40" class="box panel"></rect>
  <text x="290" y="245" text-anchor="middle" class="file" style="white-space: pre;">edit_panel.py</text>
  <rect x="380" y="220" width="140" height="40" class="box panel"></rect>
  <text x="450" y="245" text-anchor="middle" class="file" style="white-space: pre;">proof_panel.py</text>
  <rect x="540" y="220" width="140" height="40" class="box panel"></rect>
  <text x="610" y="245" text-anchor="middle" class="file" style="white-space: pre;">rule_panel.py</text>
  <rect x="711" y="220" width="180" height="40" class="box panel"></rect>
  <text x="801" y="245" text-anchor="middle" class="file" style="white-space: pre; font-size: 16px;">editor_base_panel.py</text>
  <text x="450" y="210" text-anchor="middle" class="group" style="white-space: pre;">Panels (GUI components)</text>
  <text x="50.379" y="275.769" class="desc" style="white-space: pre; font-size: 14px;" transform="matrix(1, 0, 0, 1, -24.592072, -17.971588)"><tspan x="50.37900161743164" dy="1em">​</tspan>    Shared logic for all panels     Diagram editing panel          Proof view panel        Custom rewrite rule panel   Base for editor (edit and rule) panels<tspan x="50.37900161743164" dy="1em">​</tspan></text>
  <rect x="60" y="340" width="140" height="40" class="box graph"></rect>
  <text x="130" y="365" text-anchor="middle" class="file" style="white-space: pre;">graphscene.py</text>
  <rect x="236.88" y="339.672" width="140" height="40" class="box graph"></rect>
  <text x="306.88" y="364.672" text-anchor="middle" class="file" style="white-space: pre; font-size: 16px;">graphview.py</text>
  <rect x="411.88" y="339.672" width="140" height="40" class="box graph"></rect>
  <text x="481.88" y="364.672" text-anchor="middle" class="file" style="white-space: pre; font-size: 16px;">vitem.py</text>
  <rect x="571.88" y="339.672" width="140" height="40" class="box graph"></rect>
  <text x="641.88" y="364.672" text-anchor="middle" class="file" style="white-space: pre; font-size: 16px;">eitem.py</text>
  <text x="452.154" y="323.852" text-anchor="middle" class="group" style="white-space: pre; font-size: 18px;">Graph/Diagram Logic</text>
  <text x="290" y="395" class="desc" style="white-space: pre;" transform="matrix(1, 0, 0, 1, 119.778366, 1.077251)">Visual item for a vertex      Visual item for an edge<tspan x="290" dy="1em">​</tspan></text>
  <rect x="60" y="460" width="140" height="40" class="box proof"></rect>
  <text x="130" y="485" text-anchor="middle" class="file" style="white-space: pre;">proof.py</text>
  <rect x="230" y="460" width="140" height="40" class="box proof"></rect>
  <text x="300" y="485" text-anchor="middle" class="file" style="white-space: pre; font-size: 16px;">rewrite_action.py</text>
  <rect x="395" y="460" width="140" height="40" class="box proof"></rect>
  <text x="465" y="485" text-anchor="middle" class="file" style="white-space: pre; font-size: 16px;">rewrite_data.py</text>
  <rect x="561" y="460" width="140" height="40" class="box proof"></rect>
  <text x="631" y="485" text-anchor="middle" class="file" style="white-space: pre; font-size: 16px;">custom_rule.py</text>
  <text x="450" y="450" text-anchor="middle" class="group" style="white-space: pre;">Proof/Rewrite Logic</text>
  <rect x="60" y="580" width="140" height="40" class="box edit"></rect>
  <text x="130" y="605" text-anchor="middle" class="file" style="white-space: pre;">animations.py</text>
  <rect x="220" y="580" width="140" height="40" class="box edit"></rect>
  <text x="290" y="605" text-anchor="middle" class="file" style="white-space: pre;">commands.py</text>
  <text x="130" y="570" text-anchor="middle" class="group" style="white-space: pre;">Undo/Animation</text>
  <rect x="400" y="580" width="123.976" height="40" class="box util" style=""></rect>
  <text x="462.638" y="605" text-anchor="middle" class="file" style="white-space: pre; font-size: 16px;">dialogs.py</text>
  <rect x="560" y="580" width="140" height="40" class="box util"></rect>
  <text x="630" y="605" text-anchor="middle" class="file" style="white-space: pre;">settings.py</text>
  <rect x="720" y="580" width="146.22" height="40" class="box util" style=""></rect>
  <text x="792.894" y="606.083" text-anchor="middle" class="file" style="white-space: pre; font-size: 16px;">settings_dialog.py</text>
  <text x="474.602" y="566.65" text-anchor="middle" class="group" style="white-space: pre; font-size: 18px;">Dialogs/Settings</text>
  <rect x="60" y="700" width="140" height="40" class="box util"></rect>
  <text x="130" y="725" text-anchor="middle" class="file" style="white-space: pre;">common.py</text>
  <rect x="220" y="700" width="140" height="40" class="box util"></rect>
  <text x="290" y="725" text-anchor="middle" class="file" style="white-space: pre;">construct.py</text>
  <rect x="380" y="700" width="140" height="40" class="box util"></rect>
  <text x="450" y="725" text-anchor="middle" class="file" style="white-space: pre;">tikz.py</text>
  <rect x="540" y="700" width="140" height="40" class="box util"></rect>
  <text x="610" y="725" text-anchor="middle" class="file" style="white-space: pre;">sfx.py</text>
  <rect x="700" y="700" width="165" height="40" class="box util"></rect>
  <text x="782.5" y="725" text-anchor="middle" class="file" style="white-space: pre;">update_checker.py</text>
  <rect x="875" y="700" width="155" height="40" class="box util"></rect>
  <text x="952.5" y="725" text-anchor="middle" class="file" style="white-space: pre;">latex_render.py</text>
  <text x="453" y="690" text-anchor="middle" class="group" style="white-space: pre; font-size: 18px;">Utility/Misc</text>
  <rect x="60" y="820" width="140" height="40" class="box util"></rect>
  <text x="130" y="845" text-anchor="middle" class="file" style="white-space: pre;">icons/</text>
  <rect x="220" y="820" width="140" height="40" class="box util"></rect>
  <text x="290" y="845" text-anchor="middle" class="file" style="white-space: pre;">sfx/</text>
  <rect x="380" y="820" width="140" height="40" class="box util"></rect>
  <text x="450" y="845" text-anchor="middle" class="file" style="white-space: pre;">tooltips/</text>
  <text x="290" y="810" text-anchor="middle" class="group" style="white-space: pre;">Resources</text>
  <rect x="600" y="820" width="140" height="40" class="box util"></rect>
  <text x="670" y="845" text-anchor="middle" class="file" style="white-space: pre;">doc/</text>
  <rect x="760" y="820" width="140" height="40" class="box util"></rect>
  <text x="830" y="845" text-anchor="middle" class="file" style="white-space: pre;">test/</text>
  <text x="746.885" y="811.267" text-anchor="middle" class="group" style="white-space: pre; font-size: 18px;">Docs/Tests</text>
  <text style="white-space: pre; fill: rgb(51, 51, 51); font-family: Arial, sans-serif; font-size: 28px;" x="880.951" y="314.129"> </text>
  <text x="63.546" y="514.327" class="desc" style="white-space: pre; font-size: 14px; stroke-width: 1;">Proof steps list view</text>
  <text x="290" y="395" class="desc" style="white-space: pre;" transform="matrix(1, 0, 0, 1, -233.957169, 0.077032)">Manages graph, vertices,<tspan x="290" dy="1em">​</tspan> edges, mouse events<tspan x="290" dy="1em">​</tspan></text>
  <text x="290" y="395" class="desc" style="white-space: pre;" transform="matrix(1, 0, 0, 1, -58.949745, -0.388659)"> Handles view, selection,<tspan x="290" dy="1em">​</tspan>      grid, zoom, pan<tspan x="290" dy="1em">​</tspan></text>
  <text x="218.074" y="515.593" class="desc" style="white-space: pre; font-size: 14px; stroke-width: 1;">Rewrite tree of proof mode</text>
  <text x="409.755" y="514.327" class="desc" style="white-space: pre; font-size: 14px; stroke-width: 1;">Data of rewrites</text>
  <text x="564.722" y="514.327" class="desc" style="white-space: pre; font-size: 14px; stroke-width: 1;">Custom rewrites logic</text>
  <text x="66.643" y="633.793" class="desc" style="white-space: pre; font-size: 14px; stroke-width: 1;">Rewrite animations</text>
  <text x="220.957" y="632.663" class="desc" style="white-space: pre; font-size: 14px; stroke-width: 1;">Every undoable action</text>
  <text x="393.58" y="632.775" class="desc" style="white-space: pre; font-size: 14px; stroke-width: 1;">Dialog boxes like save</text>
  <text x="552.487" y="633.104" class="desc" style="white-space: pre; font-size: 14px; stroke-width: 1;">Settings values and logic</text>
  <text x="735.092" y="634.277" class="desc" style="white-space: pre; font-size: 14px; stroke-width: 1;">Settings dialog UI</text>
  <text x="396.597" y="752.812" class="desc" style="white-space: pre; font-size: 14px; stroke-width: 1;">Tikz proof export</text>
  <text x="552.706" y="751.086" class="desc" style="white-space: pre; font-size: 14px; stroke-width: 1;">Sound effects logic</text>
  <text x="712" y="751.086" class="desc" style="white-space: pre; font-size: 14px; stroke-width: 1;">Check for app updates</text>
  <text x="952.5" y="751.086" text-anchor="middle" class="desc" style="white-space: pre; font-size: 14px; stroke-width: 1;">LaTeX to SVG<tspan x="952.5" dy="1em">for dummy labels</tspan></text>
  <text x="69" y="756.353" class="desc" style="white-space: pre; font-size: 14px; stroke-width: 1;" transform="matrix(1, 0, 0, 1, 0, -4)">Utility functions and<tspan x="69" dy="1em">​</tspan>      constants</text>
  <text x="237.401" y="756.483" class="desc" style="white-space: pre; font-size: 14px; stroke-width: 1;" transform="matrix(1, 0, 0, 1, -7.602929, -4)">Creates an example<tspan x="237.4010009765625" dy="1em">​</tspan>         diagram</text>
  <rect x="725.101" y="460.024" width="157.692" height="40" class="box proof" style="stroke-width: 1.5;"></rect>
  <text x="805.153" y="486.658" text-anchor="middle" class="file" style="white-space: pre; font-size: 16px; stroke-width: 1;">unfusion_rewrite.py</text>
  <text x="714.875" y="514.671" class="desc" style="white-space: pre; font-size: 14px; stroke-width: 1;">Spider unfusion rewrite logic</text>
  <rect x="888.911" y="579.266" width="149.154" height="40" class="box util" style="stroke-width: 1.5;"></rect>
  <text x="963.651" y="606.199" text-anchor="middle" class="file" style="white-space: pre; font-size: 16px; stroke-width: 1;">unfusion_dialog.py</text>
  <text x="884.292" y="632.601" class="desc" style="white-space: pre; font-size: 14px; stroke-width: 1;">Spider unfusion rewrite UI</text>
</svg>
