<svg class="svg-icon" style="width: 1em; height: 1em;vertical-align: middle;fill: currentColor;overflow: hidden;" viewBox="0 0 1024 1024" version="1.1" xmlns="http://www.w3.org/2000/svg"><path d="M494.753444 355.46783c-23.534029-28.941576-65.978474-33.325209-94.768063-9.879173-28.845584 23.534029-33.261214 65.890482-9.815178 94.80006l483.295524 558.705209c23.414039 28.837585 65.770492 33.165222 94.736066 9.759183 28.845584-23.478034 33.19722-65.890482 9.759183-94.712068l-483.207532-558.673211z m-63.87465 28.213637a18.342464 18.342464 0 0 1 25.661851 2.727771l39.892659 48.987897c-5.583532 2.399799-11.015077 5.37555-15.910668 9.311221-4.919588 4.023663-8.855258 8.671274-12.366964 13.630858l-39.860662-48.899905c-6.32747-7.927336-5.159568-19.454371 2.583784-25.757842z" fill="#4D4D4D" /><path d="M407.584745 705.510513a30.717427 30.717427 0 0 1-26.781757-15.63869L274.515889 501.167627 58.917946 481.657261a30.757424 30.757424 0 0 1-25.901831-19.542363 30.765423 30.765423 0 0 1 6.063492-31.893329l146.563725-159.242663-48.075973-211.198313a30.741425 30.741425 0 0 1 42.772418-34.773087l196.855513 90.232443L563.155716 4.337237a30.781422 30.781422 0 0 1 32.453282 0.59995 30.701429 30.701429 0 0 1 13.830841 29.357541l-25.037903 214.997994 163.026347 142.628055c9.07124 7.911337 12.670939 20.366294 9.247225 31.87733s-13.270889 20.006324-25.157893 21.686184l-75.641665 10.7431a30.749425 30.749425 0 0 1-8.647275-60.882901l9.271223-1.303891L531.758345 284.913738a30.709428 30.709428 0 0 1-10.287138-26.685765l19.69435-169.19383-146.347743 87.272691a30.877414 30.877414 0 0 1-28.549609 1.543871l-154.939024-71.018052 37.836831 166.250076a30.757424 30.757424 0 0 1-7.351384 27.645685L126.472288 426.053918l169.67379 15.350714a30.797421 30.797421 0 0 1 23.99799 15.518701l83.632996 148.483564 8.615278-20.206308a30.741425 30.741425 0 1 1 56.547264 24.141979l-33.077229 77.497509a30.677431 30.677431 0 0 1-28.277632 18.670436z" fill="#4D4D4D" /></svg>