<svg fill="#CCCCCC" viewBox="-2.08 -2.08 20.16 20.16" xmlns="http://www.w3.org/2000/svg" stroke="#CCCCCC" stroke-width="0.00016" transform="rotate(0)matrix(-1, 0, 0, 1, 16, 0)"><g id="SVGRepo_bgCarrier" stroke-width="0"></g><g id="SVGRepo_tracerCarrier" stroke-linecap="round" stroke-linejoin="round" stroke="#4D4D4D" stroke-width="1.6"> <path class="cls-1" d="M6,3.6V0L0,6l6,6V8c6-.27,7.53,3.76,7.88,5.77a.27.27,0,0,0,.53,0C17.08,2.86,6,3.6,6,3.6Z"></path> </g><g id="SVGRepo_iconCarrier"> <path class="cls-1" d="M6,3.6V0L0,6l6,6V8c6-.27,7.53,3.76,7.88,5.77a.27.27,0,0,0,.53,0C17.08,2.86,6,3.6,6,3.6Z"></path> </g></svg>